<svg width="300" height="116" viewBox="0 0 300 116" fill="none" xmlns="http://www.w3.org/2000/svg">
<path d="M194.362 0.182775C184.187 2.02115 176.295 8.74073 173.03 18.3129C172.65 19.4857 172.206 21.1022 172.111 21.8629C171.889 23.1941 171.636 23.4794 167.769 26.8392C156.802 36.3797 146.564 49.1849 140.13 61.4196C137.911 65.6035 137.562 66.9348 138.069 69.0584C138.577 71.2137 140.764 73.4324 142.856 73.9713C143.965 74.2565 162.032 74.3516 215.408 74.3516H286.471L286.249 75.9681C285.615 80.7542 282.635 84.6212 277.881 86.8082C276.391 87.5055 276.391 87.5055 245.646 87.664C215.059 87.8542 214.901 87.8542 212.365 88.5515C201.779 91.4992 194.108 99.7719 192.27 110.295C192.08 111.341 191.921 112.799 191.921 113.56L191.895 115.116H198.666C206.209 115.116 205.265 115.24 205.709 112.102C206.121 109.059 208.562 105.446 211.509 103.544C214.996 101.325 212.524 101.483 246.597 101.293C281.019 101.103 278.673 101.262 284.093 98.7259C292.746 94.7322 298.547 86.7448 299.656 77.3628C300.163 73.0521 300.1 57.521 299.529 52.7349C296.296 25.1276 280.829 6.90235 256.106 1.6091C249.862 0.277863 247.009 0.0242872 238.356 0.0559833C232.492 0.0559833 228.942 0.214471 226.026 0.62652C221.937 1.16535 214.869 2.4332 212.872 3.03542C211.985 3.28899 211.573 3.19389 210.273 2.55997C207.357 1.07026 203.458 0.151076 199.528 0.0242917C197.531 -0.0391005 195.186 0.0242944 194.362 0.182775ZM202.381 13.8755C207.547 15.4286 211.224 19.771 212.016 25.2861L212.238 26.8075H185.17L185.36 24.874C186.057 17.1719 194.71 11.5934 202.381 13.8755ZM180.415 41.2292C183.3 42.5605 184.821 45.9202 183.997 49.0265C183.427 51.0867 181.176 53.2104 179.021 53.7175C174.583 54.7952 170.114 50.7697 170.812 46.364C171.572 41.6413 176.105 39.2007 180.415 41.2292Z" fill="url(#paint0_linear_3_517)"/>
<path d="M0 77.47H21.7109C24.5144 77.47 26.9634 77.7656 29.0576 78.3567C31.1687 78.9478 32.9252 79.7754 34.327 80.8394C35.7457 81.9034 36.8097 83.1785 37.519 84.6648C38.2283 86.151 38.583 87.7892 38.583 89.5795C38.583 91.7919 38.0595 93.7595 37.0123 95.4822C35.9652 97.188 34.4114 98.5475 32.351 99.5609L40.255 115.141H23.7122L17.7335 101.461H14.6428V115.116H0V77.47ZM15.5295 96.8755C16.7286 96.8755 17.801 96.7066 18.7468 96.3689C19.6926 96.0311 20.4949 95.5582 21.1535 94.9502C21.8122 94.3253 22.3189 93.5906 22.6735 92.7462C23.0282 91.8848 23.2055 90.9475 23.2055 89.9341C23.2055 88.9208 23.0282 87.9919 22.6735 87.1474C22.3189 86.2861 21.8122 85.5514 21.1535 84.9434C20.4949 84.3185 19.6926 83.8372 18.7468 83.4994C17.801 83.1616 16.7286 82.9927 15.5295 82.9927H14.6681L14.6428 96.8755H15.5295Z" fill="white"/>
<path d="M57.6845 86.9701L53.3271 77.47H68.7553L87.1981 115.141H70.6553L67.8686 109.112H53.0231L50.2618 115.141H43.8524L57.6845 86.9701ZM65.2086 103.31L60.4459 92.9742L55.7085 103.31H65.2086Z" fill="white"/>
<path d="M98.9782 83.2461H88.2368V77.4447H124.362V83.2461H113.621V115.116H98.9782V83.2461Z" fill="white"/>
<path d="M129.86 77.47H144.528L144.503 115.116H129.86V77.47Z" fill="white"/>
<path d="M154.18 77.47H163.351L187.24 97.5342L187.266 77.47H192.839V115.116H183.668L159.753 95.1275V115.116H154.18V77.47Z" fill="white"/>
<path d="M200.262 96.3182C200.262 94.528 200.49 92.8053 200.946 91.1502C201.419 89.4781 202.103 87.9243 202.998 86.4888C203.893 85.0532 204.991 83.7443 206.291 82.5621C207.592 81.3798 209.069 80.3665 210.725 79.522C212.397 78.6776 214.237 78.0274 216.247 77.5714C218.257 77.0985 220.419 76.862 222.733 76.862C224.219 76.862 225.638 76.9549 226.989 77.1407C228.357 77.3265 229.64 77.5883 230.839 77.926C232.039 78.2469 233.145 78.6269 234.158 79.066C235.188 79.4883 236.117 79.9358 236.945 80.4087L234.766 84.6648C233.82 84.2088 232.739 83.8288 231.523 83.5247C230.324 83.2039 229.074 83.0434 227.774 83.0434C226.034 83.0434 224.422 83.3559 222.935 83.9808C221.449 84.6057 220.166 85.4923 219.085 86.6408C218.004 87.7892 217.151 89.1826 216.526 90.8208C215.918 92.4422 215.614 94.2662 215.614 96.2929C215.614 98.3027 215.918 100.127 216.526 101.765C217.134 103.386 217.97 104.78 219.034 105.945C220.115 107.093 221.39 107.989 222.859 108.63C224.346 109.255 225.95 109.568 227.673 109.568V96.8249H242.442L239.807 101.613V111.848L239.833 111.898C239.005 112.388 237.983 112.861 236.767 113.317C235.551 113.773 234.192 114.187 232.689 114.558C231.202 114.913 229.615 115.2 227.926 115.42C226.237 115.639 224.506 115.749 222.733 115.749C219.27 115.749 216.146 115.242 213.359 114.229C210.589 113.199 208.233 111.805 206.291 110.049C204.349 108.276 202.854 106.215 201.807 103.868C200.777 101.503 200.262 98.9867 200.262 96.3182Z" fill="white"/>
<path d="M248.624 106.756C250.414 107.668 252.288 108.352 254.248 108.808C256.207 109.264 258.031 109.492 259.72 109.492C261.662 109.492 263.081 109.213 263.976 108.656C264.888 108.098 265.344 107.338 265.344 106.376C265.344 106.072 265.285 105.759 265.166 105.438C265.065 105.117 264.854 104.805 264.533 104.501C264.229 104.18 263.798 103.868 263.241 103.564C262.701 103.243 261.991 102.93 261.113 102.626L256.578 101.081C253.336 99.9662 250.895 98.4631 249.257 96.5715C247.619 94.6631 246.8 92.3999 246.8 89.7821C246.8 88.0932 247.154 86.4719 247.864 84.9181C248.573 83.3474 249.645 81.971 251.081 80.7887C252.516 79.5896 254.324 78.6354 256.502 77.926C258.698 77.2167 261.265 76.862 264.204 76.862C265.656 76.862 267.049 76.9465 268.384 77.1154C269.718 77.2842 270.968 77.5038 272.133 77.774C273.315 78.0443 274.396 78.3567 275.376 78.7114C276.355 79.0492 277.217 79.3869 277.96 79.7247L275.224 84.6648C274.683 84.327 274.109 84.0314 273.501 83.7781C272.91 83.5247 272.31 83.3136 271.702 83.1447C271.111 82.9759 270.529 82.8492 269.954 82.7647C269.38 82.6803 268.857 82.6381 268.384 82.6381C267.573 82.6381 266.864 82.7479 266.256 82.9674C265.648 83.1701 265.133 83.4488 264.71 83.8034C264.305 84.1412 263.993 84.5296 263.773 84.9688C263.57 85.391 263.469 85.8132 263.469 86.2354C263.469 86.607 263.553 86.9701 263.722 87.3248C263.908 87.6626 264.212 88.0003 264.634 88.3381C265.073 88.659 265.639 88.9884 266.332 89.3261C267.041 89.647 267.919 89.9848 268.966 90.3395L272.006 91.3528C275.3 92.4506 277.816 93.9622 279.556 95.8875C281.295 97.8129 282.165 100.144 282.165 102.88C282.165 104.737 281.743 106.452 280.898 108.022C280.071 109.593 278.83 110.953 277.174 112.101C275.519 113.233 273.459 114.119 270.993 114.761C268.544 115.386 265.698 115.698 262.456 115.698C260.902 115.698 259.399 115.614 257.946 115.445C256.511 115.293 255.1 115.057 253.716 114.736C252.348 114.415 250.996 114.009 249.662 113.52C248.328 113.03 246.994 112.456 245.66 111.797L248.624 106.756Z" fill="white"/>
<defs>
<linearGradient id="paint0_linear_3_517" x1="150" y1="-1.48801" x2="150" y2="114.769" gradientUnits="userSpaceOnUse">
<stop stop-color="#D5224E"/>
<stop offset="1" stop-color="#FF003F"/>
</linearGradient>
</defs>
</svg>
