<svg width="25" height="24" viewBox="0 0 25 24" fill="none" xmlns="http://www.w3.org/2000/svg">
<g clip-path="url(#clip0_2_328)">
<path d="M23.0841 10.5H2.08411C1.25568 10.5 0.584106 11.1716 0.584106 12C0.584106 12.8284 1.25568 13.5 2.08411 13.5H23.0841C23.9125 13.5 24.5841 12.8284 24.5841 12C24.5841 11.1716 23.9125 10.5 23.0841 10.5Z" fill="white"/>
<path d="M2.08411 6.50001H23.0841C23.9125 6.50001 24.5841 5.82843 24.5841 5C24.5841 4.17158 23.9125 3.5 23.0841 3.5H2.08411C1.25568 3.5 0.584106 4.17158 0.584106 5C0.584106 5.82843 1.25568 6.50001 2.08411 6.50001Z" fill="white"/>
<path d="M23.0841 17.5H2.08411C1.25568 17.5 0.584106 18.1716 0.584106 19C0.584106 19.8284 1.25568 20.5 2.08411 20.5H23.0841C23.9125 20.5 24.5841 19.8284 24.5841 19C24.5841 18.1716 23.9125 17.5 23.0841 17.5Z" fill="white"/>
</g>
<defs>
<clipPath id="clip0_2_328">
<rect width="24" height="24" fill="white" transform="translate(0.584106)"/>
</clipPath>
</defs>
</svg>
