<svg width="9" height="16" viewBox="0 0 9 16" fill="none" xmlns="http://www.w3.org/2000/svg">
<path d="M7.75001 5.525L3.16402 0.939005C2.88262 0.657743 2.50102 0.499784 2.10317 0.499878C1.70531 0.499972 1.32378 0.65811 1.04252 0.939505C0.761258 1.2209 0.6033 1.6025 0.603394 2.00036C0.603487 2.39822 0.761626 2.77974 1.04302 3.061L5.62901 7.64601C5.67558 7.69245 5.71252 7.74763 5.73773 7.80837C5.76293 7.86912 5.77591 7.93424 5.77591 8.00001C5.77591 8.06577 5.76293 8.13089 5.73773 8.19164C5.71252 8.25238 5.67558 8.30756 5.62901 8.35401L1.04302 12.939C0.761626 13.2203 0.603487 13.6018 0.603394 13.9997C0.6033 14.3975 0.761258 14.7791 1.04252 15.0605C1.32378 15.3419 1.70531 15.5 2.10317 15.5001C2.50102 15.5002 2.88262 15.3423 3.16402 15.061L7.75001 10.475C8.40524 9.81797 8.77319 8.92792 8.77319 8.00001C8.77319 7.07209 8.40524 6.18204 7.75001 5.525Z" fill="#D5224E"/>
</svg>
